<svg xmlns="http://www.w3.org/2000/svg" xmlns:xlink="http://www.w3.org/1999/xlink" width="1000" height="1690" viewBox="0 0 1000 1690"><svg viewBox="0 0 60 60" width="60" height="60" id="cloud-computing" y="0"><path d="M50.003 20c-.115-8.699-7.193-16-15.919-16-5.559 0-10.779 3.005-13.661 7.336A8 8 0 0 0 8 18c0 .153.014.302.023.454-.01.182-.023.366-.023.546-3.988 1.912-7 6.457-7 11.155C1 36.67 6.33 42 12.845 42h24.507c.138 0 .272-.016.408-.021.137.005.271.021.409.021h9.803C54.037 42 59 37.037 59 30.972c0-5.371-3.894-10.011-8.997-10.972zM50.003 20s-2.535-.375-5.003 0M8 18a8 8 0 0 1 16 0" fill="#7fabda" stroke="#7383bf" stroke-width="2" stroke-linecap="round" stroke-miterlimit="10"></path><circle cx="31" cy="39" r="10" fill="#e7eced" stroke="#424a60" stroke-width="2" stroke-linecap="round" stroke-miterlimit="10"></circle><path fill="none" stroke="#424a60" stroke-width="2" stroke-linecap="round" stroke-miterlimit="10" d="M38.071 46.071L48 56"></path></svg><svg width="43" viewBox="0 0 43 40" height="40" id="dropbox" y="60"><path d="M12.5 0L0 8.1l8.7 7 12.5-7.8L12.5 0zM0 21.9l12.5 8.2 8.7-7.3-12.5-7.7L0 21.9zm21.2.9l8.8 7.3L42.4 22l-8.6-6.9-12.6 7.7zM42.4 8.1L30 0l-8.8 7.3 12.6 7.8 8.6-7zM21.3 24.4l-8.8 7.3-3.7-2.5V32l12.5 7.5L33.8 32v-2.8L30 31.7l-8.7-7.3z" fill="#007EE5"></path></svg><svg width="509.08" height="440.97" viewBox="0 0 133156 115341" shape-rendering="geometricPrecision" text-rendering="geometricPrecision" image-rendering="optimizeQuality" fill-rule="evenodd" clip-rule="evenodd" id="google-drive" y="100"><defs><style>.fil2{fill:#11a861}.fil0{fill:#3777e3}.fil1{fill:#ffcf63}</style></defs><g id="Livello_x0020_1"><path class="fil0" d="M22194 115341l22191-38447h88771l-22193 38447z"></path><path class="fil1" d="M88772 76894h44384L88772 0H44385z"></path><path class="fil2" d="M0 76894l22194 38447 44384-76894L44385 0z"></path></g></svg><svg viewBox="0 0 500 500" width="500" height="500" id="research" y="541"><path fill="none" d="M183.2 274.5c10.2-31.2 24.2-73.8-.5-89.4-9.7-6.1-18.9-9.1-27.9-9.1-9.9 0-18.5 3.6-26 6.9-6.6 2.8-12.9 5.5-19.2 5.5-6.4 0-12.6-2.6-19.2-5.4-7.6-3.2-16.2-6.9-26.1-6.9-9 0-18.2 3-27.9 9.1-24.6 15.5-10.7 58.2-.5 89.3 4.2 12.8 7.8 23.9 8.5 32 1.1 11.8 0 25.4-1.1 39.8-1.5 19.6-3.1 39.8.9 54.8 3.2 11.7 10 22.2 16.4 30.1-1.8-18.8-2.5-47.4 5.5-69.4C77.3 331.2 97 313 109.6 313s32.3 18.2 43.4 48.7c8 22 7.3 50.6 5.5 69.4 6.4-7.9 13.2-18.4 16.4-30.1 4.1-15 2.5-35.2.9-54.7-1.1-14.4-2.2-28-1.2-39.8.8-8.2 4.5-19.2 8.6-32z"></path><path fill="none" d="M222.7 306.8c33.4 0 64.8-13 88.5-36.6 48.8-48.8 48.8-128.2 0-177-23.6-23.6-55.1-36.6-88.5-36.6s-64.8 13-88.5 36.6c-20.9 20.9-33.7 48.7-36.1 78.3 4.5 1.9 8.4 3.3 11.5 3.3 3.6 0 8.4-2 14-4.4 8.3-3.5 18.7-7.9 31.3-7.9 11.7 0 23.1 3.7 35.1 11.2 33.5 21.1 17.7 69.6 6.1 104.9-3 9.1-5.6 17.3-7 23.5 10.9 3.1 22.2 4.7 33.6 4.7z"></path><path d="M321.2 83.2c-26.3-26.3-61.3-40.8-98.5-40.8s-72.2 14.5-98.5 40.8C101.9 105.4 88 134.8 84.4 166c-5.9-2-12.6-3.6-20.1-3.6-11.7 0-23.1 3.7-35.1 11.2-33.5 21.1-17.7 69.6-6.1 104.9 3.9 12 7.3 22.4 7.9 29 1 10.7-.1 23.7-1.2 37.6-1.6 20.7-3.3 42.1 1.4 59.3 7.9 29 33.4 50.4 34.5 51.3 1.2 1 2.7 1.5 4.3 1.5 1.2 0 2.4-.3 3.4-.9 2.4-1.4 3.7-4.3 3.2-7.1-.1-.5-9.5-50.8 2.2-83.1 9.5-26.3 25.9-39.8 30.7-39.8 4.9 0 21.2 13.5 30.7 39.8 11.6 32 2.3 82.6 2.2 83.1-.5 2.8.8 5.6 3.2 7.1 2.4 1.4 5.6 1.2 7.7-.6 1.1-.9 26.6-22.2 34.5-51.3 4.7-17.3 3-38.7 1.4-59.4-.8-10.2-1.6-20-1.5-28.7 11.4 3 23.2 4.5 34.9 4.5 37.2 0 72.2-14.5 98.5-40.8 54.4-54.2 54.4-142.5.1-196.8zM175.9 346.3c1.5 19.5 3.1 39.7-.9 54.7-3.2 11.7-10 22.2-16.4 30.1 1.7-18.8 2.5-47.4-5.5-69.4-11.1-30.5-30.8-48.7-43.4-48.7s-32.3 18.2-43.4 48.7c-8 22-7.3 50.6-5.5 69.4-6.4-7.9-13.2-18.4-16.4-30.1-4.1-15-2.5-35.2-.9-54.8 1.1-14.4 2.2-28 1.1-39.8-.7-8.1-4.4-19.2-8.5-32-10.2-31.1-24.1-73.8.5-89.3 9.7-6.1 18.9-9.1 27.9-9.1 9.9 0 18.5 3.6 26.1 6.9 6.6 2.8 12.8 5.4 19.2 5.4 6.4 0 12.6-2.6 19.2-5.5 7.6-3.2 16.1-6.9 26-6.9 9 0 18.2 3 27.9 9.1 24.6 15.5 10.7 58.2.5 89.4-4.2 12.8-7.8 23.9-8.5 32-1.3 11.8-.2 25.4 1 39.9zM190 173.7c-12-7.5-23.4-11.2-35.1-11.2-12.6 0-23 4.4-31.3 7.9-5.5 2.4-10.3 4.4-14 4.4-3.1 0-7-1.5-11.5-3.3 2.4-29.6 15.1-57.3 36.1-78.3 23.6-23.6 55.1-36.6 88.5-36.6s64.8 13 88.5 36.6c48.8 48.8 48.8 128.2 0 177-23.6 23.6-55.1 36.6-88.5 36.6-11.4 0-22.7-1.6-33.7-4.6 1.4-6.3 4-14.4 7-23.5 11.6-35.4 27.5-83.9-6-105z"></path><g><path d="M338.434 315.195l17.819-17.819 134.632 134.632-17.82 17.819zM326.276 303.004l17.819-17.82 8.768 8.769-17.819 17.819zM315.145 291.94l17.822-17.82 8.768 8.77-17.822 17.819z"></path></g></svg><svg width="1000" height="648.0177843645795" viewBox="0 0 53980 34980" id="yandex-disk" y="1041"><path d="M11050.914 14753.558c-3019 2241-10752 6908-9785 12647 1105 6565 10151 5498 16880 6389-758-1847-2067-1341-1242-3801 898-2675 6695-5385 9648-6300 3636-1127 16552-4233 14114 3493 4204-2088 10945-6637 12076-11203 960-3877-1688-6101-4301-7237-3386-1473-6682-1207-10241-1777-1629 604-5446 573-7622 943-11261 1918-13411 4650-19527 6846z" fill="#4076CA"></path><path d="M18145.914 33789.558c5683-455 10162 1171 18205-3377l4087-2999c49-47 154-153 228-232 2438-7726-10478-4620-14114-3493-2953 915-8750 3625-9648 6300-825 2460 484 1954 1242 3801z" fill="#DDD9CE"></path><path d="M11050.914 14753.558c6116-2196 8266-4928 19527-6846 2176-370 5993-339 7622-943-580-503-942-640-1459-1016-1473-1073-2493-2548-5341-3903-2851-1356-6670-1799-9939-612-7256 2634-7924 8416-10410 13320z" fill="#222"></path></svg></svg>