<svg xmlns="http://www.w3.org/2000/svg" xmlns:xlink="http://www.w3.org/1999/xlink" width="24" height="504" viewBox="0 0 24 504"><svg fill="#FFF" height="24" viewBox="0 0 24 24" width="24" id="add" y="0"><path d="M19 13h-6v6h-2v-6H5v-2h6V5h2v6h6v2z"></path><path d="M0 0h24v24H0z" fill="none"></path></svg><svg fill="#FFF" height="24" viewBox="0 0 24 24" width="24" id="attach" y="24"><path d="M16.5 6v11.5c0 2.21-1.79 4-4 4s-4-1.79-4-4V5a2.5 2.5 0 0 1 5 0v10.5c0 .55-.45 1-1 1s-1-.45-1-1V6H10v9.5a2.5 2.5 0 0 0 5 0V5c0-2.21-1.79-4-4-4S7 2.79 7 5v12.5c0 3.04 2.46 5.5 5.5 5.5s5.5-2.46 5.5-5.5V6h-1.5z"></path><path d="M0 0h24v24H0z" fill="none"></path></svg><svg height="24" viewBox="0 0 24 24" width="24" id="attach-inverse" y="48"><path d="M16.5 6v11.5c0 2.21-1.79 4-4 4s-4-1.79-4-4V5a2.5 2.5 0 0 1 5 0v10.5c0 .55-.45 1-1 1s-1-.45-1-1V6H10v9.5a2.5 2.5 0 0 0 5 0V5c0-2.21-1.79-4-4-4S7 2.79 7 5v12.5c0 3.04 2.46 5.5 5.5 5.5s5.5-2.46 5.5-5.5V6h-1.5z"></path><path d="M0 0h24v24H0z" fill="none"></path></svg><svg fill="#FFF" height="24" viewBox="0 0 24 24" width="24" id="close" y="72"><path d="M19 6.41L17.59 5 12 10.59 6.41 5 5 6.41 10.59 12 5 17.59 6.41 19 12 13.41 17.59 19 19 17.59 13.41 12z"></path><path d="M0 0h24v24H0z" fill="none"></path></svg><svg height="24" viewBox="0 0 24 24" width="24" id="delete-inverse" y="96"><path d="M6 19c0 1.1.9 2 2 2h8c1.1 0 2-.9 2-2V7H6v12zM19 4h-3.5l-1-1h-5l-1 1H5v2h14V4z"></path><path d="M0 0h24v24H0z" fill="none"></path></svg><svg height="24" viewBox="0 0 24 24" width="24" id="done-inverse" y="120"><path d="M0 0h24v24H0z" fill="none"></path><path d="M9 16.2L4.8 12l-1.4 1.4L9 19 21 7l-1.4-1.4L9 16.2z"></path></svg><svg height="24" viewBox="0 0 24 24" width="24" id="edit-inverse" y="144"><path d="M3 17.25V21h3.75L17.81 9.94l-3.75-3.75L3 17.25zM20.71 7.04a.996.996 0 0 0 0-1.41l-2.34-2.34a.996.996 0 0 0-1.41 0l-1.83 1.83 3.75 3.75 1.83-1.83z"></path><path d="M0 0h24v24H0z" fill="none"></path></svg><svg height="24" viewBox="0 0 24 24" width="24" id="exit" y="168"><path d="M0 0h24v24H0z" fill="none"></path><path d="M10.09 15.59L11.5 17l5-5-5-5-1.41 1.41L12.67 11H3v2h9.67l-2.58 2.59zM19 3H5a2 2 0 0 0-2 2v4h2V5h14v14H5v-4H3v4a2 2 0 0 0 2 2h14c1.1 0 2-.9 2-2V5c0-1.1-.9-2-2-2z"></path></svg><svg fill="#FFF" height="24" viewBox="0 0 24 24" width="24" id="identity" y="192"><path d="M12 5.9a2.1 2.1 0 1 1 0 4.2 2.1 2.1 0 0 1 0-4.2m0 9c2.97 0 6.1 1.46 6.1 2.1v1.1H5.9V17c0-.64 3.13-2.1 6.1-2.1M12 4C9.79 4 8 5.79 8 8s1.79 4 4 4 4-1.79 4-4-1.79-4-4-4zm0 9c-2.67 0-8 1.34-8 4v3h16v-3c0-2.66-5.33-4-8-4z"></path><path d="M0 0h24v24H0z" fill="none"></path></svg><svg fill="#FFF" height="24" viewBox="0 0 24 24" width="24" id="linear" y="216"><defs><path d="M0 0h24v24H0V0z" id="a"></path></defs><clipPath id="b"><use overflow="visible" xlink:href="#a"></use></clipPath><path clip-path="url(#b)" d="M19.5 9.5c-1.03 0-1.9.62-2.29 1.5h-2.92c-.39-.88-1.26-1.5-2.29-1.5s-1.9.62-2.29 1.5H6.79c-.39-.88-1.26-1.5-2.29-1.5a2.5 2.5 0 0 0 0 5c1.03 0 1.9-.62 2.29-1.5h2.92c.39.88 1.26 1.5 2.29 1.5s1.9-.62 2.29-1.5h2.92c.39.88 1.26 1.5 2.29 1.5a2.5 2.5 0 0 0 0-5z"></path></svg><svg height="24" viewBox="0 0 24 24" width="24" id="menu" y="240"><path d="M0 0h24v24H0z" fill="none"></path><path d="M3 18h18v-2H3v2zm0-5h18v-2H3v2zm0-7v2h18V6H3z"></path></svg><svg fill="#FFF" height="24" viewBox="0 0 24 24" width="24" id="report" y="264"><path d="M0 0h24v24H0z" fill="none"></path><path d="M19 3h-4.18C14.4 1.84 13.3 1 12 1c-1.3 0-2.4.84-2.82 2H5c-1.1 0-2 .9-2 2v14c0 1.1.9 2 2 2h14c1.1 0 2-.9 2-2V5c0-1.1-.9-2-2-2zm-7 0c.55 0 1 .45 1 1s-.45 1-1 1-1-.45-1-1 .45-1 1-1zm2 14H7v-2h7v2zm3-4H7v-2h10v2zm0-4H7V7h10v2z"></path></svg><svg height="24" viewBox="0 0 24 24" width="24" id="report-inverse" y="288"><path d="M0 0h24v24H0z" fill="none"></path><path d="M19 3h-4.18C14.4 1.84 13.3 1 12 1c-1.3 0-2.4.84-2.82 2H5c-1.1 0-2 .9-2 2v14c0 1.1.9 2 2 2h14c1.1 0 2-.9 2-2V5c0-1.1-.9-2-2-2zm-7 0c.55 0 1 .45 1 1s-.45 1-1 1-1-.45-1-1 .45-1 1-1zm2 14H7v-2h7v2zm3-4H7v-2h10v2zm0-4H7V7h10v2z"></path></svg><svg fill="#FFF" height="24" viewBox="0 0 24 24" width="24" id="save" y="312"><path d="M0 0h24v24H0z" fill="none"></path><path d="M17 3H5a2 2 0 0 0-2 2v14a2 2 0 0 0 2 2h14c1.1 0 2-.9 2-2V7l-4-4zm-5 16c-1.66 0-3-1.34-3-3s1.34-3 3-3 3 1.34 3 3-1.34 3-3 3zm3-10H5V5h10v4z"></path></svg><svg fill="#FFF" height="24" viewBox="0 0 24 24" width="24" id="spellchecker" y="336"><path d="M0 0h24v24H0z" fill="none"></path><path d="M12.45 16h2.09L9.43 3H7.57L2.46 16h2.09l1.12-3h5.64l1.14 3zm-6.02-5L8.5 5.48 10.57 11H6.43zm15.16.59l-8.09 8.09L9.83 16l-1.41 1.41 5.09 5.09L23 13l-1.41-1.41z"></path></svg><svg height="24" viewBox="0 0 24 24" width="24" id="submenu-vert-inverse" y="360"><path d="M0 0h24v24H0z" fill="none"></path><path d="M12 8c1.1 0 2-.9 2-2s-.9-2-2-2-2 .9-2 2 .9 2 2 2zm0 2c-1.1 0-2 .9-2 2s.9 2 2 2 2-.9 2-2-.9-2-2-2zm0 6c-1.1 0-2 .9-2 2s.9 2 2 2 2-.9 2-2-.9-2-2-2z"></path></svg><svg height="24" viewBox="0 0 24 24" width="24" id="undo-inverse" y="384"><path d="M0 0h24v24H0z" fill="none"></path><path d="M12.5 8c-2.65 0-5.05.99-6.9 2.6L2 7v9h9l-3.62-3.62c1.39-1.16 3.16-1.88 5.12-1.88 3.54 0 6.55 2.31 7.6 5.5l2.37-.78C21.08 11.03 17.15 8 12.5 8z"></path></svg><svg height="24" viewBox="0 0 24 24" width="24" id="visibility-inverse" y="408"><path d="M0 0h24v24H0z" fill="none"></path><path d="M12 4.5C7 4.5 2.73 7.61 1 12c1.73 4.39 6 7.5 11 7.5s9.27-3.11 11-7.5c-1.73-4.39-6-7.5-11-7.5zM12 17c-2.76 0-5-2.24-5-5s2.24-5 5-5 5 2.24 5 5-2.24 5-5 5zm0-8c-1.66 0-3 1.34-3 3s1.34 3 3 3 3-1.34 3-3-1.34-3-3-3z"></path></svg><svg height="24" viewBox="0 0 24 24" width="24" id="warning-inverse" y="432"><path d="M0 0h24v24H0z" fill="none"></path><path d="M1 21h22L12 2 1 21zm12-3h-2v-2h2v2zm0-4h-2v-4h2v4z"></path></svg><svg fill="#FFF" height="24" viewBox="0 0 24 24" width="24" id="zoom-in" y="456"><path d="M15.5 14h-.79l-.28-.27A6.471 6.471 0 0 0 16 9.5 6.5 6.5 0 1 0 9.5 16c1.61 0 3.09-.59 4.23-1.57l.27.28v.79l5 4.99L20.49 19l-4.99-5zm-6 0C7.01 14 5 11.99 5 9.5S7.01 5 9.5 5 14 7.01 14 9.5 11.99 14 9.5 14z"></path><path d="M0 0h24v24H0V0z" fill="none"></path><path d="M12 10h-2v2H9v-2H7V9h2V7h1v2h2v1z"></path></svg><svg fill="#FFF" height="24" viewBox="0 0 24 24" width="24" id="zoom-out" y="480"><path d="M0 0h24v24H0V0z" fill="none"></path><path d="M15.5 14h-.79l-.28-.27A6.471 6.471 0 0 0 16 9.5 6.5 6.5 0 1 0 9.5 16c1.61 0 3.09-.59 4.23-1.57l.27.28v.79l5 4.99L20.49 19l-4.99-5zm-6 0C7.01 14 5 11.99 5 9.5S7.01 5 9.5 5 14 7.01 14 9.5 11.99 14 9.5 14zM7 9h5v1H7z"></path></svg></svg>