<?xml version="1.0" encoding="UTF-8" standalone="no"?>
<!DOCTYPE svg PUBLIC "-//W3C//DTD SVG 1.1//EN" "http://www.w3.org/Graphics/SVG/1.1/DTD/svg11.dtd">
<svg version="1.1" xmlns="http://www.w3.org/2000/svg" xmlns:xlink="http://www.w3.org/1999/xlink" preserveAspectRatio="xMidYMid meet" viewBox="0 0 360 360" width="256" height="256"><defs><path d="M360 180C360 279.34 279.34 360 180 360C80.66 360 0 279.34 0 180C0 80.66 80.66 0 180 0C279.34 0 360 80.66 360 180Z" id="o3THsbr8i"></path><path d="M119.66 229.99C122.23 229.98 124.86 229.98 127.42 229.99C143.73 230.03 158.12 230.02 169.07 223.19C173.56 220.38 178.22 211.88 179.99 211.88C181.8 211.88 186.43 220.38 190.92 223.19C201.86 230.02 216.24 230.03 232.57 229.99C235.13 229.98 237.77 229.98 240.33 229.99C256.63 230.03 271.03 230.02 281.97 223.19C294.1 215.61 300 201.15 300 178.97C300 155.39 293.37 128.67 282.28 107.5C269.6 83.31 253.33 70 236.45 70C219.57 70 203.29 83.31 190.62 107.5C186.38 115.58 181.8 133.67 180 133.67C178.41 133.67 173.61 115.58 169.38 107.5C156.7 83.31 140.43 70 123.55 70C106.67 70 90.39 83.31 77.71 107.5C66.62 128.67 60 155.39 60 178.97C59.99 201.16 65.89 215.62 78.02 223.19C88.96 230.02 103.33 230.03 119.66 229.99ZM204.2 169.7C204.2 169.7 206.4 169.48 206.4 172.23C206.4 172.74 206.4 174.28 206.4 174.28C206.4 180.69 210.51 185.9 215.57 185.9C219.05 185.9 246.93 185.9 250.42 185.9C255.47 185.9 259.59 180.69 259.59 174.28C259.59 171.55 259.59 149.71 259.59 146.98C259.59 140.57 255.47 135.36 250.42 135.36C246.93 135.36 219.05 135.36 215.57 135.36C210.51 135.36 206.4 140.57 206.4 146.98C206.4 146.98 206.4 148.92 206.4 149.57C206.4 151.64 204.48 151.71 204.48 151.71C203.17 151.71 192.7 151.71 191.39 151.71C190.27 151.71 190.46 150.67 190.57 150.15C198 118.03 216.37 87.98 236.45 87.98C262.56 87.98 285.8 138.86 285.8 178.97C285.8 209.02 273.73 212.01 244.1 212.01C242.86 212.01 241.61 212.01 240.36 212C237.77 212 235.12 212 232.53 212C231.27 212.01 230.03 212.01 228.79 212.01C199.16 212.01 187.09 209.02 187.09 178.97C187.09 176.78 187.16 174.57 187.3 172.33C187.35 171.46 187.25 169.7 188.85 169.7C191.92 169.7 202.66 169.7 204.2 169.7ZM169.46 150.36C169.56 150.81 169.62 151.71 168.55 151.71C167.23 151.71 156.64 151.71 155.31 151.71C155.31 151.71 153.59 152.2 153.59 149.81C153.59 149.1 153.59 146.98 153.59 146.98C153.59 140.57 149.48 135.36 144.42 135.36C140.93 135.36 113.06 135.36 109.57 135.36C104.51 135.36 100.4 140.57 100.4 146.98C100.4 149.71 100.4 171.55 100.4 174.28C100.4 180.69 104.51 185.9 109.57 185.9C113.06 185.9 140.93 185.9 144.42 185.9C149.48 185.9 153.59 180.69 153.59 174.28C153.59 174.28 153.59 172.68 153.59 172.15C153.59 169.92 155.5 169.7 155.5 169.7C157.04 169.7 169.34 169.7 170.88 169.7C172.67 169.7 172.61 171.08 172.65 171.76C172.81 174.19 172.89 176.6 172.89 178.97C172.89 209.03 160.83 212.01 131.19 212.01C129.96 212.01 128.71 212.01 127.45 212.01C124.87 212 122.22 212 119.63 212.01C118.37 212.01 117.12 212.01 115.89 212.01C86.26 212.01 74.19 209.03 74.19 178.97C74.19 138.86 97.43 87.98 123.54 87.98C143.66 87.98 162.06 118.16 169.46 150.36Z" id="b5xrbRasY"></path></defs><g><g><g><use xlink:href="#o3THsbr8i" opacity="1" fill="#2a4d55" fill-opacity="1"></use></g><g><use xlink:href="#b5xrbRasY" opacity="1" fill="#ffffff" fill-opacity="1"></use><g><use xlink:href="#b5xrbRasY" opacity="1" fill-opacity="0" stroke="#000000" stroke-width="1" stroke-opacity="0"></use></g></g></g></g></svg>